<mxfile host="app.diagrams.net" modified="2022-01-27T14:20:08.438Z" agent="5.0 (Macintosh; Intel Mac OS X 10_15_7) AppleWebKit/537.36 (KHTML, like Gecko) Chrome/97.0.4692.71 Safari/537.36" etag="41lXvMPZbToPUWzTx3b8" version="16.4.7" type="github">
  <diagram id="piDafpqhtRUU5qUU-vj8" name="Page-1">
    <mxGraphModel dx="2097" dy="2147" grid="1" gridSize="10" guides="1" tooltips="1" connect="1" arrows="1" fold="1" page="1" pageScale="1" pageWidth="827" pageHeight="1169" math="0" shadow="0">
      <root>
        <mxCell id="0" />
        <mxCell id="1" parent="0" />
        <mxCell id="8962rQQDY3VNNf6We3Pp-1" value="" style="strokeWidth=1;shadow=0;dashed=0;align=center;html=1;shape=mxgraph.mockup.containers.browserWindow;rSize=0;strokeColor2=#008cff;strokeColor3=#c4c4c4;mainText=,;recursiveResize=0;strokeColor=#FFFFFF;fontColor=#FFFFFF;" parent="1" vertex="1">
          <mxGeometry x="30" y="-290" width="690" height="700" as="geometry" />
        </mxCell>
        <mxCell id="8962rQQDY3VNNf6We3Pp-2" value="Registration" style="strokeWidth=1;shadow=0;dashed=0;align=center;html=1;shape=mxgraph.mockup.containers.anchor;fontSize=17;fontColor=#666666;align=left;" parent="8962rQQDY3VNNf6We3Pp-1" vertex="1">
          <mxGeometry x="60" y="12" width="110" height="26" as="geometry" />
        </mxCell>
        <mxCell id="8962rQQDY3VNNf6We3Pp-3" value="https://www.triva.com" style="strokeWidth=1;shadow=0;dashed=0;align=center;html=1;shape=mxgraph.mockup.containers.anchor;rSize=0;fontSize=17;fontColor=#666666;align=left;" parent="8962rQQDY3VNNf6We3Pp-1" vertex="1">
          <mxGeometry x="130" y="60" width="250" height="26" as="geometry" />
        </mxCell>
        <mxCell id="8962rQQDY3VNNf6We3Pp-4" value="" style="verticalLabelPosition=bottom;shadow=0;dashed=0;align=center;html=1;verticalAlign=top;strokeWidth=1;shape=mxgraph.mockup.containers.videoPlayer;strokeColor=#666666;strokeColor2=#008cff;strokeColor3=#c4c4c4;textColor=#666666;fillColor2=#008cff;barHeight=30;barPos=20;" parent="8962rQQDY3VNNf6We3Pp-1" vertex="1">
          <mxGeometry y="110" width="690" height="590" as="geometry" />
        </mxCell>
        <mxCell id="rX01KyGm1Qf1U-KcWeF4-1" value="&lt;font style=&quot;font-size: 18px&quot;&gt;Enter your Mobile Number&lt;/font&gt;" style="rounded=1;whiteSpace=wrap;html=1;" parent="8962rQQDY3VNNf6We3Pp-1" vertex="1">
          <mxGeometry x="322.5" y="260" width="220" height="40" as="geometry" />
        </mxCell>
        <mxCell id="rX01KyGm1Qf1U-KcWeF4-3" value="&lt;h1&gt;Verify your Mobile&lt;/h1&gt;&lt;p&gt;Enter your mobile number to send you OTP.&lt;/p&gt;" style="text;html=1;strokeColor=none;fillColor=none;spacing=5;spacingTop=-20;whiteSpace=wrap;overflow=hidden;rounded=0;fontSize=18;" parent="8962rQQDY3VNNf6We3Pp-1" vertex="1">
          <mxGeometry x="192.5" y="120" width="350" height="130" as="geometry" />
        </mxCell>
        <mxCell id="rX01KyGm1Qf1U-KcWeF4-4" value="&lt;span style=&quot;font-size: 24px&quot;&gt;&lt;b&gt;Done&lt;/b&gt;&lt;/span&gt;" style="rounded=1;whiteSpace=wrap;html=1;fontSize=18;" parent="8962rQQDY3VNNf6We3Pp-1" vertex="1">
          <mxGeometry x="240" y="330" width="190" height="60" as="geometry" />
        </mxCell>
        <mxCell id="6Xm53kU04oqy3b9dKunh-1" value="&lt;font style=&quot;font-size: 18px&quot;&gt;Country Code&lt;/font&gt;" style="rounded=1;whiteSpace=wrap;html=1;" vertex="1" parent="8962rQQDY3VNNf6We3Pp-1">
          <mxGeometry x="180" y="260" width="132.5" height="40" as="geometry" />
        </mxCell>
        <mxCell id="6Xm53kU04oqy3b9dKunh-2" value="&lt;b&gt;&lt;font style=&quot;font-size: 14px&quot;&gt;Resend OTP&lt;/font&gt;&lt;/b&gt;" style="text;html=1;strokeColor=none;fillColor=none;align=center;verticalAlign=middle;whiteSpace=wrap;rounded=0;" vertex="1" parent="8962rQQDY3VNNf6We3Pp-1">
          <mxGeometry x="266.25" y="400" width="137.5" height="30" as="geometry" />
        </mxCell>
        <mxCell id="6Xm53kU04oqy3b9dKunh-5" value="&lt;span style=&quot;font-size: 18px&quot;&gt;Referal Code&lt;/span&gt;" style="rounded=1;whiteSpace=wrap;html=1;" vertex="1" parent="8962rQQDY3VNNf6We3Pp-1">
          <mxGeometry x="180" y="500" width="330" height="60" as="geometry" />
        </mxCell>
        <mxCell id="6Xm53kU04oqy3b9dKunh-6" value="&lt;font style=&quot;font-size: 18px&quot;&gt;Your are referred by&lt;/font&gt;" style="text;html=1;strokeColor=none;fillColor=none;align=left;verticalAlign=middle;whiteSpace=wrap;rounded=0;fontSize=14;" vertex="1" parent="8962rQQDY3VNNf6We3Pp-1">
          <mxGeometry x="180" y="450" width="340" height="50" as="geometry" />
        </mxCell>
        <mxCell id="rX01KyGm1Qf1U-KcWeF4-5" value="" style="strokeWidth=1;shadow=0;dashed=0;align=center;html=1;shape=mxgraph.mockup.containers.browserWindow;rSize=0;strokeColor2=#008cff;strokeColor3=#c4c4c4;mainText=,;recursiveResize=0;strokeColor=#FFFFFF;fontColor=#FFFFFF;" parent="1" vertex="1">
          <mxGeometry x="760" y="-310" width="690" height="900" as="geometry" />
        </mxCell>
        <mxCell id="rX01KyGm1Qf1U-KcWeF4-6" value="Profile Setup" style="strokeWidth=1;shadow=0;dashed=0;align=center;html=1;shape=mxgraph.mockup.containers.anchor;fontSize=17;fontColor=#666666;align=left;" parent="rX01KyGm1Qf1U-KcWeF4-5" vertex="1">
          <mxGeometry x="60" y="12" width="110" height="26" as="geometry" />
        </mxCell>
        <mxCell id="rX01KyGm1Qf1U-KcWeF4-7" value="https://www.triva.com" style="strokeWidth=1;shadow=0;dashed=0;align=center;html=1;shape=mxgraph.mockup.containers.anchor;rSize=0;fontSize=17;fontColor=#666666;align=left;" parent="rX01KyGm1Qf1U-KcWeF4-5" vertex="1">
          <mxGeometry x="130" y="60" width="250" height="26" as="geometry" />
        </mxCell>
        <mxCell id="rX01KyGm1Qf1U-KcWeF4-8" value="" style="verticalLabelPosition=bottom;shadow=0;dashed=0;align=center;html=1;verticalAlign=top;strokeWidth=1;shape=mxgraph.mockup.containers.videoPlayer;strokeColor=#666666;strokeColor2=#008cff;strokeColor3=#c4c4c4;textColor=#666666;fillColor2=#008cff;barHeight=30;barPos=20;" parent="rX01KyGm1Qf1U-KcWeF4-5" vertex="1">
          <mxGeometry y="110" width="690" height="790" as="geometry" />
        </mxCell>
        <mxCell id="rX01KyGm1Qf1U-KcWeF4-12" value="&lt;span style=&quot;font-size: 18px&quot;&gt;Date of birth&lt;/span&gt;" style="rounded=1;whiteSpace=wrap;html=1;" parent="rX01KyGm1Qf1U-KcWeF4-5" vertex="1">
          <mxGeometry x="190" y="340" width="180" height="60" as="geometry" />
        </mxCell>
        <mxCell id="rX01KyGm1Qf1U-KcWeF4-13" value="&lt;font style=&quot;font-size: 18px&quot;&gt;Enter your full name&lt;/font&gt;" style="rounded=1;whiteSpace=wrap;html=1;" parent="rX01KyGm1Qf1U-KcWeF4-5" vertex="1">
          <mxGeometry x="190" y="260" width="340" height="60" as="geometry" />
        </mxCell>
        <mxCell id="rX01KyGm1Qf1U-KcWeF4-14" value="&lt;h1&gt;Profile Setup&lt;/h1&gt;&lt;p&gt;Tell us more about yourself.&lt;/p&gt;" style="text;html=1;strokeColor=none;fillColor=none;spacing=5;spacingTop=-20;whiteSpace=wrap;overflow=hidden;rounded=0;fontSize=18;" parent="rX01KyGm1Qf1U-KcWeF4-5" vertex="1">
          <mxGeometry x="190" y="120" width="350" height="120" as="geometry" />
        </mxCell>
        <mxCell id="rX01KyGm1Qf1U-KcWeF4-15" value="&lt;font style=&quot;font-size: 24px&quot;&gt;&lt;b&gt;Submit&lt;/b&gt;&lt;/font&gt;" style="rounded=1;whiteSpace=wrap;html=1;fontSize=18;" parent="rX01KyGm1Qf1U-KcWeF4-5" vertex="1">
          <mxGeometry x="290" y="780" width="120" height="60" as="geometry" />
        </mxCell>
        <mxCell id="rX01KyGm1Qf1U-KcWeF4-16" value="&lt;span style=&quot;font-size: 18px&quot;&gt;Gender&lt;/span&gt;" style="rounded=1;whiteSpace=wrap;html=1;" parent="rX01KyGm1Qf1U-KcWeF4-5" vertex="1">
          <mxGeometry x="380" y="340" width="150" height="60" as="geometry" />
        </mxCell>
        <mxCell id="rX01KyGm1Qf1U-KcWeF4-18" value="&lt;span style=&quot;font-size: 18px&quot;&gt;Referal Code&lt;/span&gt;" style="rounded=1;whiteSpace=wrap;html=1;" parent="rX01KyGm1Qf1U-KcWeF4-5" vertex="1">
          <mxGeometry x="195" y="490" width="330" height="60" as="geometry" />
        </mxCell>
        <mxCell id="6Xm53kU04oqy3b9dKunh-3" value="Let us know how you know came know about us.&lt;br&gt;Enter your referal code for reward points" style="text;html=1;strokeColor=none;fillColor=none;align=center;verticalAlign=middle;whiteSpace=wrap;rounded=0;fontSize=14;" vertex="1" parent="rX01KyGm1Qf1U-KcWeF4-5">
          <mxGeometry x="195" y="550" width="340" height="50" as="geometry" />
        </mxCell>
        <mxCell id="8962rQQDY3VNNf6We3Pp-36" value="" style="shape=image;html=1;verticalAlign=top;verticalLabelPosition=bottom;labelBackgroundColor=#ffffff;imageAspect=0;aspect=fixed;image=https://cdn3.iconfinder.com/data/icons/peelicons-vol-1/50/LinkedIn-128.png;fillColor=#008CFF;fontSize=13;fontColor=#0066CC;" parent="rX01KyGm1Qf1U-KcWeF4-5" vertex="1">
          <mxGeometry x="190" y="700" width="70" height="70" as="geometry" />
        </mxCell>
        <mxCell id="8962rQQDY3VNNf6We3Pp-37" value="" style="shape=image;html=1;verticalAlign=top;verticalLabelPosition=bottom;labelBackgroundColor=#ffffff;imageAspect=0;aspect=fixed;image=https://cdn3.iconfinder.com/data/icons/peelicons-vol-1/50/Facebook-128.png;fillColor=#008CFF;fontSize=13;fontColor=#0066CC;" parent="rX01KyGm1Qf1U-KcWeF4-5" vertex="1">
          <mxGeometry x="310" y="700" width="70" height="70" as="geometry" />
        </mxCell>
        <mxCell id="8962rQQDY3VNNf6We3Pp-38" value="" style="shape=image;html=1;verticalAlign=top;verticalLabelPosition=bottom;labelBackgroundColor=#ffffff;imageAspect=0;aspect=fixed;image=https://cdn3.iconfinder.com/data/icons/peelicons-vol-1/50/Twitter-128.png;fillColor=#008CFF;fontSize=13;fontColor=#0066CC;" parent="rX01KyGm1Qf1U-KcWeF4-5" vertex="1">
          <mxGeometry x="446" y="700" width="70" height="70" as="geometry" />
        </mxCell>
        <mxCell id="6Xm53kU04oqy3b9dKunh-4" value="&lt;font style=&quot;font-size: 14px&quot;&gt;&lt;b&gt;Link your account with your social media account&lt;/b&gt;&lt;/font&gt;" style="text;html=1;strokeColor=none;fillColor=none;align=center;verticalAlign=middle;whiteSpace=wrap;rounded=0;fontSize=14;" vertex="1" parent="rX01KyGm1Qf1U-KcWeF4-5">
          <mxGeometry x="170" y="660" width="350" height="30" as="geometry" />
        </mxCell>
        <mxCell id="6Xm53kU04oqy3b9dKunh-7" value="&lt;span style=&quot;font-size: 18px&quot;&gt;Email Address&lt;/span&gt;" style="rounded=1;whiteSpace=wrap;html=1;" vertex="1" parent="rX01KyGm1Qf1U-KcWeF4-5">
          <mxGeometry x="195" y="410" width="330" height="60" as="geometry" />
        </mxCell>
        <mxCell id="6Xm53kU04oqy3b9dKunh-8" value="" style="shape=image;html=1;verticalAlign=top;verticalLabelPosition=bottom;labelBackgroundColor=#ffffff;imageAspect=0;aspect=fixed;image=https://cdn4.iconfinder.com/data/icons/essential-app-2/16/camera-digital-snap-photo-128.png;fontSize=18;" vertex="1" parent="rX01KyGm1Qf1U-KcWeF4-5">
          <mxGeometry x="71" y="252" width="88" height="88" as="geometry" />
        </mxCell>
        <mxCell id="rX01KyGm1Qf1U-KcWeF4-32" value="" style="strokeWidth=1;shadow=0;dashed=0;align=center;html=1;shape=mxgraph.mockup.containers.browserWindow;rSize=0;strokeColor2=#008cff;strokeColor3=#c4c4c4;mainText=,;recursiveResize=0;strokeColor=#FFFFFF;fontColor=#FFFFFF;" parent="1" vertex="1">
          <mxGeometry x="20" y="670" width="690" height="700" as="geometry" />
        </mxCell>
        <mxCell id="rX01KyGm1Qf1U-KcWeF4-33" value="Login Page" style="strokeWidth=1;shadow=0;dashed=0;align=center;html=1;shape=mxgraph.mockup.containers.anchor;fontSize=17;fontColor=#666666;align=left;" parent="rX01KyGm1Qf1U-KcWeF4-32" vertex="1">
          <mxGeometry x="60" y="12" width="110" height="26" as="geometry" />
        </mxCell>
        <mxCell id="rX01KyGm1Qf1U-KcWeF4-34" value="https://www.triva.com" style="strokeWidth=1;shadow=0;dashed=0;align=center;html=1;shape=mxgraph.mockup.containers.anchor;rSize=0;fontSize=17;fontColor=#666666;align=left;" parent="rX01KyGm1Qf1U-KcWeF4-32" vertex="1">
          <mxGeometry x="130" y="60" width="250" height="26" as="geometry" />
        </mxCell>
        <mxCell id="rX01KyGm1Qf1U-KcWeF4-35" value="" style="verticalLabelPosition=bottom;shadow=0;dashed=0;align=center;html=1;verticalAlign=top;strokeWidth=1;shape=mxgraph.mockup.containers.videoPlayer;strokeColor=#666666;strokeColor2=#008cff;strokeColor3=#c4c4c4;textColor=#666666;fillColor2=#008cff;barHeight=30;barPos=20;" parent="rX01KyGm1Qf1U-KcWeF4-32" vertex="1">
          <mxGeometry y="110" width="690" height="590" as="geometry" />
        </mxCell>
        <mxCell id="rX01KyGm1Qf1U-KcWeF4-41" value="&lt;h1&gt;Dashboard&lt;/h1&gt;&lt;p&gt;&lt;br&gt;&lt;/p&gt;" style="text;html=1;strokeColor=none;fillColor=none;spacing=5;spacingTop=-20;whiteSpace=wrap;overflow=hidden;rounded=0;fontSize=18;" parent="rX01KyGm1Qf1U-KcWeF4-32" vertex="1">
          <mxGeometry x="190" y="120" width="350" height="70" as="geometry" />
        </mxCell>
        <mxCell id="6Xm53kU04oqy3b9dKunh-9" value="" style="shape=image;html=1;verticalAlign=top;verticalLabelPosition=bottom;labelBackgroundColor=#ffffff;imageAspect=0;aspect=fixed;image=https://cdn2.iconfinder.com/data/icons/black-friday-shopping-3/252/Asset_1140-128.png;fontSize=18;" vertex="1" parent="rX01KyGm1Qf1U-KcWeF4-32">
          <mxGeometry x="300" y="610" width="50" height="50" as="geometry" />
        </mxCell>
        <mxCell id="6Xm53kU04oqy3b9dKunh-10" value="" style="html=1;strokeWidth=1;shadow=0;dashed=0;shape=mxgraph.ios7.misc.notification;fillColor=#FF3B2F;strokeColor=none;buttonText=;strokeColor2=#222222;fontColor=#222222;fontSize=8;verticalLabelPosition=bottom;verticalAlign=top;align=center;sketch=0;" vertex="1" parent="rX01KyGm1Qf1U-KcWeF4-32">
          <mxGeometry x="610" y="610" width="50" height="50" as="geometry" />
        </mxCell>
        <mxCell id="6Xm53kU04oqy3b9dKunh-11" value="" style="aspect=fixed;perimeter=ellipsePerimeter;html=1;align=center;shadow=0;dashed=0;fontColor=#4277BB;labelBackgroundColor=#ffffff;fontSize=12;spacingTop=3;image;image=img/lib/ibm/blockchain/wallet.svg;" vertex="1" parent="rX01KyGm1Qf1U-KcWeF4-32">
          <mxGeometry x="40" y="610" width="50" height="50" as="geometry" />
        </mxCell>
        <mxCell id="6Xm53kU04oqy3b9dKunh-12" value="&lt;font color=&quot;#6c767d&quot;&gt;&lt;b&gt;&lt;font&gt;&lt;span style=&quot;font-size: 20px&quot;&gt;New Plan&lt;/span&gt;&lt;br style=&quot;font-size: 10px&quot;&gt;Card subtitle&lt;br&gt;&lt;/font&gt;&lt;/b&gt;&lt;/font&gt;&lt;br style=&quot;font-size: 14px&quot;&gt;Some quick example text to build on the card title and make up the bulk of the card&#39;s content." style="html=1;shadow=0;dashed=0;shape=mxgraph.bootstrap.rrect;rSize=5;strokeColor=#DFDFDF;html=1;whiteSpace=wrap;fillColor=#ffffff;fontColor=#000000;verticalAlign=top;align=left;spacing=20;fontSize=14;" vertex="1" parent="rX01KyGm1Qf1U-KcWeF4-32">
          <mxGeometry x="100" y="200" width="520" height="190" as="geometry" />
        </mxCell>
        <mxCell id="6Xm53kU04oqy3b9dKunh-13" value="Card link" style="html=1;shadow=0;dashed=0;shape=mxgraph.bootstrap.rrect;rSize=5;perimeter=none;whiteSpace=wrap;fillColor=none;strokeColor=none;fontColor=#0085FC;resizeWidth=1;fontSize=14;align=center;" vertex="1" parent="6Xm53kU04oqy3b9dKunh-12">
          <mxGeometry y="1" width="166.4" height="40" relative="1" as="geometry">
            <mxPoint x="10" y="-50" as="offset" />
          </mxGeometry>
        </mxCell>
        <mxCell id="6Xm53kU04oqy3b9dKunh-14" value="Another link" style="html=1;shadow=0;dashed=0;shape=mxgraph.bootstrap.rrect;rSize=5;perimeter=none;whiteSpace=wrap;fillColor=none;strokeColor=none;fontColor=#0085FC;resizeWidth=1;fontSize=14;align=center;" vertex="1" parent="6Xm53kU04oqy3b9dKunh-12">
          <mxGeometry y="1" width="208" height="40" relative="1" as="geometry">
            <mxPoint x="100" y="-50" as="offset" />
          </mxGeometry>
        </mxCell>
        <mxCell id="rX01KyGm1Qf1U-KcWeF4-19" value="" style="strokeWidth=1;shadow=0;dashed=0;align=center;html=1;shape=mxgraph.mockup.containers.browserWindow;rSize=0;strokeColor2=#008cff;strokeColor3=#c4c4c4;mainText=,;recursiveResize=0;strokeColor=#FFFFFF;fontColor=#FFFFFF;" parent="1" vertex="1">
          <mxGeometry x="780" y="620" width="719" height="716" as="geometry" />
        </mxCell>
        <mxCell id="rX01KyGm1Qf1U-KcWeF4-20" value="Wallet" style="strokeWidth=1;shadow=0;dashed=0;align=center;html=1;shape=mxgraph.mockup.containers.anchor;fontSize=17;fontColor=#666666;align=left;" parent="rX01KyGm1Qf1U-KcWeF4-19" vertex="1">
          <mxGeometry x="60" y="12" width="110" height="26" as="geometry" />
        </mxCell>
        <mxCell id="rX01KyGm1Qf1U-KcWeF4-21" value="https://www.triva.com" style="strokeWidth=1;shadow=0;dashed=0;align=center;html=1;shape=mxgraph.mockup.containers.anchor;rSize=0;fontSize=17;fontColor=#666666;align=left;" parent="rX01KyGm1Qf1U-KcWeF4-19" vertex="1">
          <mxGeometry x="130" y="60" width="250" height="26" as="geometry" />
        </mxCell>
        <mxCell id="rX01KyGm1Qf1U-KcWeF4-22" value="" style="verticalLabelPosition=bottom;shadow=0;dashed=0;align=center;html=1;verticalAlign=top;strokeWidth=1;shape=mxgraph.mockup.containers.videoPlayer;strokeColor=#666666;strokeColor2=#008cff;strokeColor3=#c4c4c4;textColor=#666666;fillColor2=#008cff;barHeight=30;barPos=20;" parent="rX01KyGm1Qf1U-KcWeF4-19" vertex="1">
          <mxGeometry y="110" width="690" height="590" as="geometry" />
        </mxCell>
        <mxCell id="rX01KyGm1Qf1U-KcWeF4-28" value="&lt;h1&gt;&lt;span&gt;&lt;font style=&quot;font-size: 36px&quot;&gt;Wallet Screen&lt;/font&gt;&lt;/span&gt;&lt;/h1&gt;&lt;h1&gt;&lt;span style=&quot;font-size: 18px ; font-weight: 400&quot;&gt;Your current Balance is &lt;/span&gt;&lt;font style=&quot;font-size: 24px&quot;&gt;$2.00&lt;/font&gt;&lt;/h1&gt;" style="text;html=1;strokeColor=none;fillColor=none;spacing=5;spacingTop=-20;whiteSpace=wrap;overflow=hidden;rounded=0;fontSize=18;" parent="rX01KyGm1Qf1U-KcWeF4-19" vertex="1">
          <mxGeometry x="190" y="120" width="380" height="140" as="geometry" />
        </mxCell>
        <mxCell id="6Xm53kU04oqy3b9dKunh-15" value="&lt;span style=&quot;font-size: 18px&quot;&gt;Card Holder Name&lt;/span&gt;" style="rounded=1;whiteSpace=wrap;html=1;" vertex="1" parent="rX01KyGm1Qf1U-KcWeF4-19">
          <mxGeometry x="200" y="300" width="310" height="60" as="geometry" />
        </mxCell>
        <mxCell id="6Xm53kU04oqy3b9dKunh-16" value="&lt;span style=&quot;font-size: 18px&quot;&gt;Card Number&lt;/span&gt;" style="rounded=1;whiteSpace=wrap;html=1;" vertex="1" parent="rX01KyGm1Qf1U-KcWeF4-19">
          <mxGeometry x="200" y="375" width="310" height="60" as="geometry" />
        </mxCell>
        <mxCell id="6Xm53kU04oqy3b9dKunh-17" value="&lt;span style=&quot;font-size: 18px&quot;&gt;Expiry Date&lt;/span&gt;" style="rounded=1;whiteSpace=wrap;html=1;" vertex="1" parent="rX01KyGm1Qf1U-KcWeF4-19">
          <mxGeometry x="200" y="450" width="130" height="60" as="geometry" />
        </mxCell>
        <mxCell id="6Xm53kU04oqy3b9dKunh-18" value="&lt;span style=&quot;font-size: 18px&quot;&gt;Card Number&lt;/span&gt;" style="rounded=1;whiteSpace=wrap;html=1;" vertex="1" parent="rX01KyGm1Qf1U-KcWeF4-19">
          <mxGeometry x="340" y="450" width="170" height="60" as="geometry" />
        </mxCell>
        <mxCell id="6Xm53kU04oqy3b9dKunh-36" value="&lt;font style=&quot;font-size: 24px&quot;&gt;&lt;b&gt;Submit&lt;/b&gt;&lt;/font&gt;" style="rounded=1;whiteSpace=wrap;html=1;fontSize=18;" vertex="1" parent="rX01KyGm1Qf1U-KcWeF4-19">
          <mxGeometry x="285" y="570" width="120" height="60" as="geometry" />
        </mxCell>
      </root>
    </mxGraphModel>
  </diagram>
</mxfile>
